<svg width="15" height="15" viewBox="0 0 15 15" fill="none" xmlns="http://www.w3.org/2000/svg">
<g id="edit_FILL0_wght400_GRAD0_opsz48 1">
<path id="Vector" d="M2.8125 12.1875H3.5L10.4219 5.26562L9.73438 4.57812L2.8125 11.5V12.1875ZM12.4063 4.59375L10.4063 2.59375L11.0625 1.9375C11.2396 1.76042 11.4583 1.67188 11.7188 1.67188C11.9792 1.67188 12.1979 1.76042 12.375 1.9375L13.0625 2.625C13.2396 2.80208 13.3281 3.02083 13.3281 3.28125C13.3281 3.54167 13.2396 3.76042 13.0625 3.9375L12.4063 4.59375ZM11.75 5.25L3.875 13.125H1.875V11.125L9.75 3.25L11.75 5.25ZM10.0781 4.92188L9.73438 4.57812L10.4219 5.26562L10.0781 4.92188Z" fill="white"/>
</g>
</svg>
